# xmcd CD database file
#
# Track frame offsets:
#	150
#	24894
#	43420
#	69366
#
# Disc length: 1251 seconds
#
# Revision: 1
# Processed by: cddbd v1.5.2PL0 Copyright (c) Steve Scherf et al.
# Submitted via: CDex 1.70beta2
#
DISCID=2c04e104
DTITLE=田中ロウマ - Not Alone
DYEAR=2006
DGENRE=Pop
TTITLE0=Not Alone
TTITLE1=better days ～ through my eyes～
TTITLE2=Not Alone (Darkest Room UTA MIX)
TTITLE3=Not Alone (instrumental)
EXTD=YEAR: 2006
EXTT0=
EXTT1=
EXTT2=
EXTT3=
PLAYORDER=
